<?xml version="1.0" encoding="UTF-8"?>
<svg id="uuid-86c174e0-a3b4-4133-b52c-ffd3d05edc98" data-name="Capa 1" xmlns="http://www.w3.org/2000/svg" xmlns:xlink="http://www.w3.org/1999/xlink" viewBox="0 0 812.86 205.58">
  <defs>
    <clipPath id="uuid-4f9e3352-b3ce-4d5e-89fa-cd8623ea87d2">
      <rect x="1.22" y="41.61" width="133.93" height="134.49" style="fill: none; stroke-width: 0px;"/>
    </clipPath>
    <clipPath id="uuid-330adfcc-326e-4441-9edd-c3ef45cc234d">
      <path d="M80.67,110.23c0-.19-.01-1.6-.01-2.67,30.94-5.88,54.43-33.1,54.43-65.74h-25.11c0,23.06-18.77,41.83-41.83,41.83s-41.83-18.76-41.83-41.83H1.22c0,32.65,23.5,59.89,54.47,65.76v2.54c.44,36.33,30.13,65.74,66.57,65.74v-24.99c-22.62,0-41.07-18.15-41.58-40.64" style="fill: none; stroke-width: 0px;"/>
    </clipPath>
    <clipPath id="uuid-edb26194-a678-4f65-b477-fec7c009ed3e">
      <rect x="84.48" y="0" width="26.67" height="42.65" style="fill: none; stroke-width: 0px;"/>
    </clipPath>
    <clipPath id="uuid-61b4b37e-96c1-42ce-bcb5-42b49ef04ebb">
      <polygon points="107.67 0 109.98 41.82 84.9 41.82 87.4 0 107.67 0" style="fill: none; stroke-width: 0px;"/>
    </clipPath>
    <clipPath id="uuid-4705dc29-cee5-4a1e-af6b-687862a2743f">
      <rect x="25.98" y="8.28" width="26.15" height="34.36" style="fill: none; stroke-width: 0px;"/>
    </clipPath>
    <clipPath id="uuid-d947818d-9ab5-4c09-b718-6ca9f4ef503e">
      <polygon points="49.17 8.4 51.47 41.82 26.39 41.82 28.91 8.4 49.17 8.4" style="fill: none; stroke-width: 0px;"/>
    </clipPath>
    <clipPath id="uuid-e225c4e8-1e61-4c54-8024-061c862454ac">
      <rect x="51.15" y="41.61" width="34" height="17.33" style="fill: none; stroke-width: 0px;"/>
    </clipPath>
    <clipPath id="uuid-2274bb3e-07df-477a-800e-b311239626f3">
      <path d="M51.42,41.82c-.02,9.24,7.48,16.74,16.73,16.74s16.74-7.5,16.74-16.74h-33.47Z" style="fill: none; stroke-width: 0px;"/>
    </clipPath>
    <clipPath id="uuid-d986c710-f2ab-4f12-8773-09533648cb8d">
      <path d="M161.8,0h84.45v24.63h-84.45V0ZM191.23,24.63h25.06v83.96h-25.06V24.63Z" style="fill: none; stroke-width: 0px;"/>
    </clipPath>
    <clipPath id="uuid-f4f68a4a-d85b-487c-8093-3b8a74649ca1">
      <rect x="227.15" y="24.28" width="85.33" height="85.33" style="fill: none; stroke-width: 0px;"/>
    </clipPath>
    <clipPath id="uuid-a6e71b2a-3b3f-47e5-bcc1-b39311604cc1">
      <path d="M284.75,66.48c0-9.01-6.67-16.22-14.78-16.22s-14.79,7.2-14.79,16.22,6.68,16.22,14.78,16.22,14.78-7.21,14.78-16.22M311.91,61.89c2.85,26.84-19.67,49.36-46.52,46.52-19.55-2.08-35.28-17.81-37.35-37.36-2.85-26.84,19.68-49.36,46.52-46.52,19.55,2.08,35.28,17.81,37.35,37.36" style="fill: none; stroke-width: 0px;"/>
    </clipPath>
    <clipPath id="uuid-ffc3d2d2-3d35-4b60-a625-9159422a7823">
      <rect x="323.15" y="24.74" width="86.32" height="110.07" style="fill: none; stroke-width: 0px;"/>
    </clipPath>
    <clipPath id="uuid-3a73ddd3-dff0-4b35-bfca-9ac249c5017b">
      <path d="M384.47,66.65c0-10.03-7.7-18.09-17.38-18.09-6.28,0-12.18,3.58-15.23,9.49-2.27,5.38-2.34,11.43-.2,16.87l.2.51c3.04,5.74,8.96,9.49,15.23,9.49,9.67,0,17.38-8.24,17.38-18.27M408.88,67.12c0,23.11-17.73,41.92-38.89,41.92-14.18,0-21.15-9.66-21.15-9.66v34.46h-25.62V25.14h25.62v6.33c6.09-3.94,13.08-6.09,20.61-6.09,21.69,0,39.42,18.63,39.42,41.74" style="fill: none; stroke-width: 0px;"/>
    </clipPath>
    <clipPath id="uuid-ee88b63a-9553-4370-83c3-61d633990038">
      <rect x="419.15" y="-.03" width="97.64" height="109.64" style="fill: none; stroke-width: 0px;"/>
    </clipPath>
    <clipPath id="uuid-75e5dad4-2125-4fd3-9a56-f92ac423ff0b">
      <path d="M491.34,54.35c0-15.96-11.58-29.13-25.8-29.13h-20.46v58.44h20.3c14.39,0,25.98-13.16,25.98-29.29M516.61,54.36c0,29.99-22.99,54.38-51.06,54.38h-45.57V-.03h45.57c28.08,0,51.06,24.38,51.06,54.38" style="fill: none; stroke-width: 0px;"/>
    </clipPath>
    <clipPath id="uuid-4b4d34fb-a4a3-473b-bfcd-5c2452165edb">
      <rect x="527.15" y="23.36" width="66.67" height="86.25" style="fill: none; stroke-width: 0px;"/>
    </clipPath>
    <clipPath id="uuid-734e7387-0c4e-4e19-a70b-711eb5d1c599">
      <path d="M575.62,24.14c6.03,0,12.25,2.06,17.9,6l-9.99,22.31c-4.14-3.19-7.91-4.49-12.44-4.13-14.69,1.5-16.4,16.13-16.4,24.2v36.39h-27.13V25.07h27.15v10.89c4.53-8.82,13.19-11.82,20.93-11.82" style="fill: none; stroke-width: 0px;"/>
    </clipPath>
    <clipPath id="uuid-c9e4c519-d9ac-47b3-ab1b-d87e8ec34225">
      <rect x="602.1" y="32.99" width="27.52" height="76.62" style="fill: none; stroke-width: 0px;"/>
    </clipPath>
    <clipPath id="uuid-f354c5f3-1785-4b65-9ba3-74a5d3dce3b2">
      <polygon points="629.51 108.74 602.52 108.74 602.52 33.42 629.52 33.42 629.51 108.74" style="fill: none; stroke-width: 0px;"/>
    </clipPath>
    <clipPath id="uuid-8d9deba4-b004-441d-a062-68f9c1f4d324">
      <rect x="637.87" y="24.74" width="92.19" height="84.88" style="fill: none; stroke-width: 0px;"/>
    </clipPath>
    <clipPath id="uuid-6e1ee37a-d68d-4d54-9027-554f15a5fd1a">
      <polygon points="701.29 25.55 729.96 25.55 697.93 108.8 670.74 108.8 638.71 25.55 667.38 25.55 684.34 69.69 701.29 25.55" style="fill: none; stroke-width: 0px;"/>
    </clipPath>
    <clipPath id="uuid-1c459e7a-bcce-4532-acdd-04c37360c09f">
      <rect x="727.3" y="24.74" width="83.84" height="84.88" style="fill: none; stroke-width: 0px;"/>
    </clipPath>
    <clipPath id="uuid-e378d1c0-8517-4f1c-a69c-86cfdcc05d16">
      <path d="M787.06,58.36c-2.92-8.28-8.99-12.41-17.28-12.41-9.24,0-15.82,4.87-18.26,12.41h35.54ZM810.23,65.34c.18,4.29-.9,10.19-.9,10.19h-57.62c1.61,5.37,8.3,10.69,16.6,10.69s13.29-3.36,16.5-8.19l18.79,11.98c-7.69,11.63-20.73,18.77-34.68,18.77-22.89,0-41.31-18.77-41.31-41.84s18.42-41.66,41.31-41.66,40.41,17.87,41.3,40.05" style="fill: none; stroke-width: 0px;"/>
    </clipPath>
    <clipPath id="uuid-8256b975-9247-4fba-b69d-61274548e71d">
      <rect x="602.1" y="-.03" width="27.52" height="27.52" style="fill: none; stroke-width: 0px;"/>
    </clipPath>
    <clipPath id="uuid-0b71da5f-de22-4209-848a-f8d37e3804ea">
      <path d="M629.51,13.48c0,7.46-6.04,13.5-13.5,13.5s-13.5-6.04-13.5-13.5S608.55-.02,616.01-.02s13.5,6.04,13.5,13.5" style="fill: none; stroke-width: 0px;"/>
    </clipPath>
  </defs>
  <g style="clip-path: url(#uuid-4f9e3352-b3ce-4d5e-89fa-cd8623ea87d2);">
    <g style="clip-path: url(#uuid-330adfcc-326e-4441-9edd-c3ef45cc234d);">
      <path d="M-5.66-6.89h147.22v189.88H-5.66V-6.89Z" style="fill: #e30523; stroke-width: 0px;"/>
    </g>
  </g>
  <g style="clip-path: url(#uuid-edb26194-a678-4f65-b477-fec7c009ed3e);">
    <g style="clip-path: url(#uuid-61b4b37e-96c1-42ce-bcb5-42b49ef04ebb);">
      <path d="M-5.66-6.89h147.22v189.88H-5.66V-6.89Z" style="fill: #222224; stroke-width: 0px;"/>
    </g>
  </g>
  <g style="clip-path: url(#uuid-4705dc29-cee5-4a1e-af6b-687862a2743f);">
    <g style="clip-path: url(#uuid-d947818d-9ab5-4c09-b718-6ca9f4ef503e);">
      <path d="M-5.66-6.89h147.22v189.88H-5.66V-6.89Z" style="fill: #222224; stroke-width: 0px;"/>
    </g>
  </g>
  <g style="clip-path: url(#uuid-e225c4e8-1e61-4c54-8024-061c862454ac);">
    <g style="clip-path: url(#uuid-2274bb3e-07df-477a-800e-b311239626f3);">
      <path d="M-5.66-6.89h147.22v189.88H-5.66V-6.89Z" style="fill: #e30523; stroke-width: 0px;"/>
    </g>
  </g>
  <g style="clip-path: url(#uuid-d986c710-f2ab-4f12-8773-09533648cb8d);">
    <path d="M154.92-6.91h661.82v147.22H154.92V-6.91Z" style="fill: #222224; stroke-width: 0px;"/>
  </g>
  <g style="clip-path: url(#uuid-f4f68a4a-d85b-487c-8093-3b8a74649ca1);">
    <g style="clip-path: url(#uuid-a6e71b2a-3b3f-47e5-bcc1-b39311604cc1);">
      <path d="M154.92-6.91h661.82v147.22H154.92V-6.91Z" style="fill: #222224; stroke-width: 0px;"/>
    </g>
  </g>
  <g style="clip-path: url(#uuid-ffc3d2d2-3d35-4b60-a625-9159422a7823);">
    <g style="clip-path: url(#uuid-3a73ddd3-dff0-4b35-bfca-9ac249c5017b);">
      <path d="M154.92-6.91h661.82v147.22H154.92V-6.91Z" style="fill: #222224; stroke-width: 0px;"/>
    </g>
  </g>
  <g style="clip-path: url(#uuid-ee88b63a-9553-4370-83c3-61d633990038);">
    <g style="clip-path: url(#uuid-75e5dad4-2125-4fd3-9a56-f92ac423ff0b);">
      <path d="M154.92-6.91h661.82v147.22H154.92V-6.91Z" style="fill: #222224; stroke-width: 0px;"/>
    </g>
  </g>
  <g style="clip-path: url(#uuid-4b4d34fb-a4a3-473b-bfcd-5c2452165edb);">
    <g style="clip-path: url(#uuid-734e7387-0c4e-4e19-a70b-711eb5d1c599);">
      <path d="M154.92-6.91h661.82v147.22H154.92V-6.91Z" style="fill: #222224; stroke-width: 0px;"/>
    </g>
  </g>
  <g style="clip-path: url(#uuid-c9e4c519-d9ac-47b3-ab1b-d87e8ec34225);">
    <g style="clip-path: url(#uuid-f354c5f3-1785-4b65-9ba3-74a5d3dce3b2);">
      <path d="M154.92-6.91h661.82v147.22H154.92V-6.91Z" style="fill: #222224; stroke-width: 0px;"/>
    </g>
  </g>
  <g style="clip-path: url(#uuid-8d9deba4-b004-441d-a062-68f9c1f4d324);">
    <g style="clip-path: url(#uuid-6e1ee37a-d68d-4d54-9027-554f15a5fd1a);">
      <path d="M154.92-6.91h661.82v147.22H154.92V-6.91Z" style="fill: #222224; stroke-width: 0px;"/>
    </g>
  </g>
  <g style="clip-path: url(#uuid-1c459e7a-bcce-4532-acdd-04c37360c09f);">
    <g style="clip-path: url(#uuid-e378d1c0-8517-4f1c-a69c-86cfdcc05d16);">
      <path d="M154.92-6.91h661.82v147.22H154.92V-6.91Z" style="fill: #222224; stroke-width: 0px;"/>
    </g>
  </g>
  <g style="clip-path: url(#uuid-8256b975-9247-4fba-b69d-61274548e71d);">
    <g style="clip-path: url(#uuid-0b71da5f-de22-4209-848a-f8d37e3804ea);">
      <path d="M154.92-6.91h661.82v147.22H154.92V-6.91Z" style="fill: #222224; stroke-width: 0px;"/>
    </g>
  </g>
  <path d="M605.13,161.22h13.88v23c-3.17,2.28-6.81,4.03-10.94,5.25-4.13,1.21-8.25,1.81-12.38,1.81-5.82,0-11.06-1.23-15.71-3.69-4.66-2.46-8.31-5.88-10.96-10.27-2.64-4.39-3.96-9.35-3.96-14.9s1.32-10.53,3.96-14.92c2.65-4.39,6.33-7.81,11.04-10.27s10.02-3.69,15.94-3.69c5.18,0,9.83.88,13.96,2.63,4.13,1.74,7.56,4.24,10.31,7.52l-10,9.04c-3.75-4.13-8.24-6.19-13.48-6.19-4.75,0-8.58,1.45-11.5,4.33-2.91,2.88-4.35,6.72-4.35,11.54,0,3.06.66,5.79,1.98,8.21,1.32,2.41,3.17,4.28,5.54,5.63,2.39,1.35,5.11,2.02,8.19,2.02s5.84-.61,8.48-1.83v-15.23Z" style="fill: #737373; stroke-width: 0px;"/>
  <path d="M641.03,152.35c1.54-1.96,3.54-3.42,6-4.4,2.46-.98,5.27-1.48,8.44-1.48v13.56c-1.38-.15-2.52-.23-3.42-.23-3.22,0-5.74.88-7.56,2.63-1.82,1.74-2.73,4.41-2.73,8v19.75h-15.08v-42.98h14.35v5.15Z" style="fill: #737373; stroke-width: 0px;"/>
  <path d="M681.8,190.89c-4.6,0-8.75-.95-12.46-2.85-3.7-1.9-6.59-4.54-8.69-7.92-2.08-3.39-3.13-7.23-3.13-11.52s1.04-8.02,3.13-11.4c2.09-3.39,4.98-6.02,8.65-7.9,3.68-1.89,7.84-2.83,12.5-2.83s8.82.95,12.52,2.83c3.71,1.88,6.59,4.49,8.65,7.85,2.07,3.35,3.1,7.16,3.1,11.44s-1.04,8.14-3.1,11.52c-2.06,3.38-4.94,6.02-8.65,7.92-3.7,1.91-7.87,2.85-12.52,2.85ZM681.8,178.91c2.64,0,4.8-.91,6.5-2.73,1.69-1.82,2.54-4.34,2.54-7.58s-.85-5.65-2.54-7.44c-1.7-1.8-3.86-2.71-6.5-2.71s-4.83.91-6.52,2.71c-1.68,1.79-2.52,4.27-2.52,7.44s.84,5.77,2.52,7.58c1.69,1.82,3.86,2.73,6.52,2.73Z" style="fill: #737373; stroke-width: 0px;"/>
  <path d="M756.64,147.2v42.98h-14.35v-4.6c-1.58,1.75-3.49,3.08-5.71,3.98-2.22.89-4.58,1.33-7.06,1.33-5.56,0-9.99-1.64-13.29-4.92-3.29-3.28-4.94-8.19-4.94-14.75v-24.02h15.06v21.56c0,3.22.6,5.58,1.81,7.06,1.22,1.49,3,2.23,5.33,2.23s4.31-.83,5.81-2.5c1.51-1.67,2.27-4.22,2.27-7.67v-20.69h15.06Z" style="fill: #737373; stroke-width: 0px;"/>
  <path d="M791.75,146.47c3.92,0,7.47.92,10.67,2.75,3.21,1.82,5.75,4.41,7.63,7.77,1.88,3.36,2.81,7.26,2.81,11.69s-.94,8.35-2.81,11.71c-1.88,3.36-4.42,5.95-7.63,7.77-3.2,1.82-6.75,2.73-10.67,2.73-5.02,0-9-1.51-11.96-4.52v19.21h-15.08v-58.38h14.35v4.27c2.8-3.33,7.03-5,12.69-5ZM788.59,178.91c2.64,0,4.8-.91,6.5-2.73,1.69-1.82,2.54-4.32,2.54-7.5s-.85-5.66-2.54-7.48c-1.7-1.83-3.86-2.75-6.5-2.75s-4.81.92-6.5,2.75c-1.7,1.82-2.54,4.31-2.54,7.48s.84,5.68,2.54,7.5c1.69,1.82,3.86,2.73,6.5,2.73Z" style="fill: #737373; stroke-width: 0px;"/>
</svg>