<?xml version="1.0" encoding="UTF-8"?>
<svg id="uuid-78f264b0-a526-4014-89f5-a544b56698a8" data-name="Capa 1" xmlns="http://www.w3.org/2000/svg" xmlns:xlink="http://www.w3.org/1999/xlink" viewBox="0 0 812.86 205.58">
  <defs>
    <clipPath id="uuid-20ad19c2-e6ce-48e5-a09e-b36e47b6d2ca">
      <rect x=".33" y="41.47" width="133.93" height="134.49" style="fill: none; stroke-width: 0px;"/>
    </clipPath>
    <clipPath id="uuid-bd6b474a-48e9-4a7d-a4d4-c806e2679b05">
      <path d="M79.79,110.09c0-.19-.01-1.6-.01-2.67,30.94-5.88,54.43-33.1,54.43-65.74h-25.11c0,23.06-18.77,41.83-41.83,41.83s-41.83-18.76-41.83-41.83H.33c0,32.65,23.5,59.89,54.47,65.76v2.54c.44,36.33,30.13,65.74,66.57,65.74v-24.99c-22.62,0-41.07-18.15-41.58-40.64" style="fill: #fff; stroke-width: 0px;"/>
    </clipPath>
    <clipPath id="uuid-89c0ac23-2a77-467d-8f16-3304f240cc31">
      <rect x="83.6" y="-.14" width="26.67" height="42.65" style="fill: none; stroke-width: 0px;"/>
    </clipPath>
    <clipPath id="uuid-da3d97c7-ebcd-4f93-ac17-d9efaa255567">
      <polygon points="106.79 -.14 109.1 41.68 84.02 41.68 86.52 -.14 106.79 -.14" style="fill: #fff; stroke-width: 0px;"/>
    </clipPath>
    <clipPath id="uuid-3dadc44f-b7f5-4ae1-bf7f-89c59c8abf5e">
      <rect x="25.1" y="8.14" width="26.15" height="34.36" style="fill: none; stroke-width: 0px;"/>
    </clipPath>
    <clipPath id="uuid-ef16d80a-004a-43bd-b92b-42ebebe02d3c">
      <polygon points="48.29 8.26 50.58 41.68 25.51 41.68 28.03 8.26 48.29 8.26" style="fill: #fff; stroke-width: 0px;"/>
    </clipPath>
    <clipPath id="uuid-aa63f8d6-4fc7-4097-98ee-b9ee5c36fc57">
      <rect x="50.27" y="41.47" width="34" height="17.33" style="fill: none; stroke-width: 0px;"/>
    </clipPath>
    <clipPath id="uuid-14327a9b-b302-4163-8e2c-fe07ce4c3f67">
      <path d="M50.54,41.68c-.02,9.24,7.48,16.74,16.73,16.74s16.74-7.5,16.74-16.74h-33.47Z" style="fill: #fff; stroke-width: 0px;"/>
    </clipPath>
    <clipPath id="uuid-a0d7c13d-3cf2-4a6e-8e53-fb87cfabfd50">
      <path d="M160.92-.14h84.45v24.63h-84.45V-.14ZM190.35,24.49h25.06v83.96h-25.06V24.49Z" style="fill: #fff; stroke-width: 0px;"/>
    </clipPath>
    <clipPath id="uuid-87a033ad-c0a0-4393-bb9d-04d18969c48b">
      <rect x="226.27" y="24.14" width="85.33" height="85.33" style="fill: none; stroke-width: 0px;"/>
    </clipPath>
    <clipPath id="uuid-1460e430-7488-4fba-a738-c5b7d2a6a320">
      <path d="M283.87,66.34c0-9.01-6.67-16.22-14.78-16.22s-14.79,7.2-14.79,16.22,6.68,16.22,14.78,16.22,14.78-7.21,14.78-16.22M311.03,61.75c2.85,26.84-19.67,49.36-46.52,46.52-19.55-2.08-35.28-17.81-37.35-37.36-2.85-26.84,19.68-49.36,46.52-46.52,19.55,2.08,35.28,17.81,37.35,37.36" style="fill: #fff; stroke-width: 0px;"/>
    </clipPath>
    <clipPath id="uuid-436a6a7f-9fe7-406c-a03f-d4e95d1b0328">
      <rect x="322.27" y="24.6" width="86.32" height="110.07" style="fill: none; stroke-width: 0px;"/>
    </clipPath>
    <clipPath id="uuid-cb094b7e-28b8-4e08-a428-8dddd49378bf">
      <path d="M383.58,66.51c0-10.03-7.7-18.09-17.38-18.09-6.28,0-12.18,3.58-15.23,9.49-2.27,5.38-2.34,11.43-.2,16.87l.2.51c3.04,5.74,8.96,9.49,15.23,9.49,9.67,0,17.38-8.24,17.38-18.27M408,66.98c0,23.11-17.73,41.92-38.89,41.92-14.18,0-21.15-9.66-21.15-9.66v34.46h-25.62V25h25.62v6.33c6.09-3.94,13.08-6.09,20.61-6.09,21.69,0,39.42,18.63,39.42,41.74" style="fill: #fff; stroke-width: 0px;"/>
    </clipPath>
    <clipPath id="uuid-5849d66e-cd54-4313-9453-81015667e652">
      <rect x="418.27" y="-.17" width="97.64" height="109.64" style="fill: none; stroke-width: 0px;"/>
    </clipPath>
    <clipPath id="uuid-d20f96a8-37a4-4b8b-b8a3-10088a4ae1d4">
      <path d="M490.45,54.21c0-15.96-11.58-29.13-25.8-29.13h-20.46v58.44h20.3c14.39,0,25.98-13.16,25.98-29.29M515.73,54.22c0,29.99-22.99,54.38-51.06,54.38h-45.57V-.17h45.57c28.08,0,51.06,24.38,51.06,54.38" style="fill: #fff; stroke-width: 0px;"/>
    </clipPath>
    <clipPath id="uuid-8a42d64e-47f6-46b9-b50a-409775d3b14c">
      <rect x="526.27" y="23.22" width="66.67" height="86.25" style="fill: none; stroke-width: 0px;"/>
    </clipPath>
    <clipPath id="uuid-b9e79e09-4da6-401c-8049-7639eb344833">
      <path d="M574.74,24c6.03,0,12.25,2.06,17.9,6l-9.99,22.31c-4.14-3.19-7.91-4.49-12.44-4.13-14.69,1.5-16.4,16.13-16.4,24.2v36.39h-27.13V24.93h27.15v10.89c4.53-8.82,13.19-11.82,20.93-11.82" style="fill: #fff; stroke-width: 0px;"/>
    </clipPath>
    <clipPath id="uuid-67956bd3-6415-4489-8064-c3e2ced50553">
      <rect x="601.22" y="32.86" width="27.52" height="76.62" style="fill: none; stroke-width: 0px;"/>
    </clipPath>
    <clipPath id="uuid-3ca475c7-fbfa-4c32-9fa3-b5f01d0f0626">
      <polygon points="628.63 108.6 601.64 108.6 601.64 33.28 628.64 33.28 628.63 108.6" style="fill: #fff; stroke-width: 0px;"/>
    </clipPath>
    <clipPath id="uuid-059298b2-15f6-4d63-a8e4-18841eb314b6">
      <rect x="636.99" y="24.6" width="92.19" height="84.88" style="fill: none; stroke-width: 0px;"/>
    </clipPath>
    <clipPath id="uuid-5450ac8b-918d-483c-bdb6-06316d584e9d">
      <polygon points="700.41 25.41 729.08 25.41 697.05 108.66 669.86 108.66 637.83 25.41 666.5 25.41 683.45 69.55 700.41 25.41" style="fill: #fff; stroke-width: 0px;"/>
    </clipPath>
    <clipPath id="uuid-167a1355-c653-4415-80fe-27eac190cbec">
      <rect x="726.42" y="24.6" width="83.84" height="84.88" style="fill: none; stroke-width: 0px;"/>
    </clipPath>
    <clipPath id="uuid-ba568d26-74ec-47ed-8cc4-a2dcd2d8b1cf">
      <path d="M786.18,58.22c-2.92-8.28-8.99-12.41-17.28-12.41-9.24,0-15.82,4.87-18.26,12.41h35.54ZM809.35,65.2c.18,4.29-.9,10.19-.9,10.19h-57.62c1.61,5.37,8.3,10.69,16.6,10.69s13.29-3.36,16.5-8.19l18.79,11.98c-7.69,11.63-20.73,18.77-34.68,18.77-22.89,0-41.31-18.77-41.31-41.84s18.42-41.66,41.31-41.66,40.41,17.87,41.3,40.05" style="fill: #fff; stroke-width: 0px;"/>
    </clipPath>
    <clipPath id="uuid-ed608594-c1c2-4094-814e-ed746fa51b72">
      <rect x="601.22" y="-.17" width="27.52" height="27.52" style="fill: none; stroke-width: 0px;"/>
    </clipPath>
    <clipPath id="uuid-c3c52a30-9d58-4797-8989-46985b30a002">
      <path d="M628.63,13.34c0,7.46-6.04,13.5-13.5,13.5s-13.5-6.04-13.5-13.5,6.04-13.5,13.5-13.5,13.5,6.04,13.5,13.5" style="fill: #fff; stroke-width: 0px;"/>
    </clipPath>
  </defs>
  <g style="clip-path: url(#uuid-20ad19c2-e6ce-48e5-a09e-b36e47b6d2ca);">
    <g>
      <path d="M79.79,110.09c0-.19-.01-1.6-.01-2.67,30.94-5.88,54.43-33.1,54.43-65.74h-25.11c0,23.06-18.77,41.83-41.83,41.83s-41.83-18.76-41.83-41.83H.33c0,32.65,23.5,59.89,54.47,65.76v2.54c.44,36.33,30.13,65.74,66.57,65.74v-24.99c-22.62,0-41.07-18.15-41.58-40.64" style="fill: #fff;"/>
      <g style="clip-path: url(#uuid-bd6b474a-48e9-4a7d-a4d4-c806e2679b05);">
        <path d="M-6.55-7.03h147.22v189.88H-6.55V-7.03Z" style="fill: #fff; stroke-width: 0px;"/>
      </g>
    </g>
  </g>
  <g style="clip-path: url(#uuid-89c0ac23-2a77-467d-8f16-3304f240cc31);">
    <g>
      <polygon points="106.79 -.14 109.1 41.68 84.02 41.68 86.52 -.14 106.79 -.14" style="fill: #fff;"/>
      <g style="clip-path: url(#uuid-da3d97c7-ebcd-4f93-ac17-d9efaa255567);">
        <path d="M-6.55-7.03h147.22v189.88H-6.55V-7.03Z" style="fill: #fff; stroke-width: 0px;"/>
      </g>
    </g>
  </g>
  <g style="clip-path: url(#uuid-3dadc44f-b7f5-4ae1-bf7f-89c59c8abf5e);">
    <g>
      <polygon points="48.29 8.26 50.58 41.68 25.51 41.68 28.03 8.26 48.29 8.26" style="fill: #fff;"/>
      <g style="clip-path: url(#uuid-ef16d80a-004a-43bd-b92b-42ebebe02d3c);">
        <path d="M-6.55-7.03h147.22v189.88H-6.55V-7.03Z" style="fill: #fff; stroke-width: 0px;"/>
      </g>
    </g>
  </g>
  <g style="clip-path: url(#uuid-aa63f8d6-4fc7-4097-98ee-b9ee5c36fc57);">
    <g>
      <path d="M50.54,41.68c-.02,9.24,7.48,16.74,16.73,16.74s16.74-7.5,16.74-16.74h-33.47Z" style="fill: #fff;"/>
      <g style="clip-path: url(#uuid-14327a9b-b302-4163-8e2c-fe07ce4c3f67);">
        <path d="M-6.55-7.03h147.22v189.88H-6.55V-7.03Z" style="fill: #fff; stroke-width: 0px;"/>
      </g>
    </g>
  </g>
  <g>
    <path d="M160.92-.14h84.45v24.63h-84.45V-.14ZM190.35,24.49h25.06v83.96h-25.06V24.49Z" style="fill: #fff;"/>
    <g style="clip-path: url(#uuid-a0d7c13d-3cf2-4a6e-8e53-fb87cfabfd50);">
      <path d="M154.04-7.05h661.82v147.22H154.04V-7.05Z" style="fill: #fff; stroke-width: 0px;"/>
    </g>
  </g>
  <g style="clip-path: url(#uuid-87a033ad-c0a0-4393-bb9d-04d18969c48b);">
    <g>
      <path d="M283.87,66.34c0-9.01-6.67-16.22-14.78-16.22s-14.79,7.2-14.79,16.22,6.68,16.22,14.78,16.22,14.78-7.21,14.78-16.22M311.03,61.75c2.85,26.84-19.67,49.36-46.52,46.52-19.55-2.08-35.28-17.81-37.35-37.36-2.85-26.84,19.68-49.36,46.52-46.52,19.55,2.08,35.28,17.81,37.35,37.36" style="fill: #fff;"/>
      <g style="clip-path: url(#uuid-1460e430-7488-4fba-a738-c5b7d2a6a320);">
        <path d="M154.04-7.05h661.82v147.22H154.04V-7.05Z" style="fill: #fff; stroke-width: 0px;"/>
      </g>
    </g>
  </g>
  <g style="clip-path: url(#uuid-436a6a7f-9fe7-406c-a03f-d4e95d1b0328);">
    <g>
      <path d="M383.58,66.51c0-10.03-7.7-18.09-17.38-18.09-6.28,0-12.18,3.58-15.23,9.49-2.27,5.38-2.34,11.43-.2,16.87l.2.51c3.04,5.74,8.96,9.49,15.23,9.49,9.67,0,17.38-8.24,17.38-18.27M408,66.98c0,23.11-17.73,41.92-38.89,41.92-14.18,0-21.15-9.66-21.15-9.66v34.46h-25.62V25h25.62v6.33c6.09-3.94,13.08-6.09,20.61-6.09,21.69,0,39.42,18.63,39.42,41.74" style="fill: #fff;"/>
      <g style="clip-path: url(#uuid-cb094b7e-28b8-4e08-a428-8dddd49378bf);">
        <path d="M154.04-7.05h661.82v147.22H154.04V-7.05Z" style="fill: #fff; stroke-width: 0px;"/>
      </g>
    </g>
  </g>
  <g style="clip-path: url(#uuid-5849d66e-cd54-4313-9453-81015667e652);">
    <g>
      <path d="M490.45,54.21c0-15.96-11.58-29.13-25.8-29.13h-20.46v58.44h20.3c14.39,0,25.98-13.16,25.98-29.29M515.73,54.22c0,29.99-22.99,54.38-51.06,54.38h-45.57V-.17h45.57c28.08,0,51.06,24.38,51.06,54.38" style="fill: #fff;"/>
      <g style="clip-path: url(#uuid-d20f96a8-37a4-4b8b-b8a3-10088a4ae1d4);">
        <path d="M154.04-7.05h661.82v147.22H154.04V-7.05Z" style="fill: #fff; stroke-width: 0px;"/>
      </g>
    </g>
  </g>
  <g style="clip-path: url(#uuid-8a42d64e-47f6-46b9-b50a-409775d3b14c);">
    <g>
      <path d="M574.74,24c6.03,0,12.25,2.06,17.9,6l-9.99,22.31c-4.14-3.19-7.91-4.49-12.44-4.13-14.69,1.5-16.4,16.13-16.4,24.2v36.39h-27.13V24.93h27.15v10.89c4.53-8.82,13.19-11.82,20.93-11.82" style="fill: #fff;"/>
      <g style="clip-path: url(#uuid-b9e79e09-4da6-401c-8049-7639eb344833);">
        <path d="M154.04-7.05h661.82v147.22H154.04V-7.05Z" style="fill: #fff; stroke-width: 0px;"/>
      </g>
    </g>
  </g>
  <g style="clip-path: url(#uuid-67956bd3-6415-4489-8064-c3e2ced50553);">
    <g>
      <polygon points="628.63 108.6 601.64 108.6 601.64 33.28 628.64 33.28 628.63 108.6" style="fill: #fff;"/>
      <g style="clip-path: url(#uuid-3ca475c7-fbfa-4c32-9fa3-b5f01d0f0626);">
        <path d="M154.04-7.05h661.82v147.22H154.04V-7.05Z" style="fill: #fff; stroke-width: 0px;"/>
      </g>
    </g>
  </g>
  <g style="clip-path: url(#uuid-059298b2-15f6-4d63-a8e4-18841eb314b6);">
    <g>
      <polygon points="700.41 25.41 729.08 25.41 697.05 108.66 669.86 108.66 637.83 25.41 666.5 25.41 683.45 69.55 700.41 25.41" style="fill: #fff;"/>
      <g style="clip-path: url(#uuid-5450ac8b-918d-483c-bdb6-06316d584e9d);">
        <path d="M154.04-7.05h661.82v147.22H154.04V-7.05Z" style="fill: #fff; stroke-width: 0px;"/>
      </g>
    </g>
  </g>
  <g style="clip-path: url(#uuid-167a1355-c653-4415-80fe-27eac190cbec);">
    <g>
      <path d="M786.18,58.22c-2.92-8.28-8.99-12.41-17.28-12.41-9.24,0-15.82,4.87-18.26,12.41h35.54ZM809.35,65.2c.18,4.29-.9,10.19-.9,10.19h-57.62c1.61,5.37,8.3,10.69,16.6,10.69s13.29-3.36,16.5-8.19l18.79,11.98c-7.69,11.63-20.73,18.77-34.68,18.77-22.89,0-41.31-18.77-41.31-41.84s18.42-41.66,41.31-41.66,40.41,17.87,41.3,40.05" style="fill: #fff;"/>
      <g style="clip-path: url(#uuid-ba568d26-74ec-47ed-8cc4-a2dcd2d8b1cf);">
        <path d="M154.04-7.05h661.82v147.22H154.04V-7.05Z" style="fill: #fff; stroke-width: 0px;"/>
      </g>
    </g>
  </g>
  <g style="clip-path: url(#uuid-ed608594-c1c2-4094-814e-ed746fa51b72);">
    <g>
      <path d="M628.63,13.34c0,7.46-6.04,13.5-13.5,13.5s-13.5-6.04-13.5-13.5,6.04-13.5,13.5-13.5,13.5,6.04,13.5,13.5" style="fill: #fff;"/>
      <g style="clip-path: url(#uuid-c3c52a30-9d58-4797-8989-46985b30a002);">
        <path d="M154.04-7.05h661.82v147.22H154.04V-7.05Z" style="fill: #fff; stroke-width: 0px;"/>
      </g>
    </g>
  </g>
  <path d="M604.25,161.09h13.88v23c-3.17,2.28-6.81,4.03-10.94,5.25-4.13,1.21-8.25,1.81-12.38,1.81-5.82,0-11.06-1.23-15.71-3.69-4.66-2.46-8.31-5.88-10.96-10.27-2.64-4.39-3.96-9.35-3.96-14.9s1.32-10.53,3.96-14.92c2.65-4.39,6.33-7.81,11.04-10.27,4.71-2.46,10.02-3.69,15.94-3.69,5.18,0,9.83.88,13.96,2.63,4.13,1.74,7.56,4.24,10.31,7.52l-10,9.04c-3.75-4.13-8.24-6.19-13.48-6.19-4.75,0-8.58,1.45-11.5,4.33-2.91,2.88-4.35,6.72-4.35,11.54,0,3.06.66,5.79,1.98,8.21,1.32,2.41,3.17,4.28,5.54,5.63,2.39,1.35,5.11,2.02,8.19,2.02s5.84-.61,8.48-1.83v-15.23Z" style="fill: #fff; stroke-width: 0px;"/>
  <path d="M640.15,152.21c1.54-1.96,3.54-3.42,6-4.4,2.46-.98,5.27-1.48,8.44-1.48v13.56c-1.38-.15-2.52-.23-3.42-.23-3.22,0-5.74.88-7.56,2.63-1.82,1.74-2.73,4.41-2.73,8v19.75h-15.08v-42.98h14.35v5.15Z" style="fill: #fff; stroke-width: 0px;"/>
  <path d="M680.92,190.75c-4.6,0-8.75-.95-12.46-2.85-3.7-1.9-6.59-4.54-8.69-7.92-2.08-3.39-3.13-7.23-3.13-11.52s1.04-8.02,3.13-11.4c2.09-3.39,4.98-6.02,8.65-7.9,3.68-1.89,7.84-2.83,12.5-2.83s8.82.95,12.52,2.83c3.71,1.88,6.59,4.49,8.65,7.85,2.07,3.35,3.1,7.16,3.1,11.44s-1.04,8.14-3.1,11.52c-2.06,3.38-4.94,6.02-8.65,7.92-3.7,1.91-7.87,2.85-12.52,2.85ZM680.92,178.77c2.64,0,4.8-.91,6.5-2.73,1.69-1.82,2.54-4.34,2.54-7.58s-.85-5.65-2.54-7.44c-1.7-1.8-3.86-2.71-6.5-2.71s-4.83.91-6.52,2.71c-1.68,1.79-2.52,4.27-2.52,7.44s.84,5.77,2.52,7.58c1.69,1.82,3.86,2.73,6.52,2.73Z" style="fill: #fff; stroke-width: 0px;"/>
  <path d="M755.76,147.06v42.98h-14.35v-4.6c-1.58,1.75-3.49,3.08-5.71,3.98-2.22.89-4.58,1.33-7.06,1.33-5.56,0-9.99-1.64-13.29-4.92-3.29-3.28-4.94-8.19-4.94-14.75v-24.02h15.06v21.56c0,3.22.6,5.58,1.81,7.06,1.22,1.49,3,2.23,5.33,2.23s4.31-.83,5.81-2.5c1.51-1.67,2.27-4.22,2.27-7.67v-20.69h15.06Z" style="fill: #fff; stroke-width: 0px;"/>
  <path d="M790.87,146.34c3.92,0,7.47.92,10.67,2.75,3.21,1.82,5.75,4.41,7.63,7.77,1.88,3.36,2.81,7.26,2.81,11.69s-.94,8.35-2.81,11.71c-1.88,3.36-4.42,5.95-7.63,7.77-3.2,1.82-6.75,2.73-10.67,2.73-5.02,0-9-1.51-11.96-4.52v19.21h-15.08v-58.38h14.35v4.27c2.8-3.33,7.03-5,12.69-5ZM787.7,178.77c2.64,0,4.8-.91,6.5-2.73,1.69-1.82,2.54-4.32,2.54-7.5s-.85-5.66-2.54-7.48c-1.7-1.83-3.86-2.75-6.5-2.75s-4.81.92-6.5,2.75c-1.7,1.82-2.54,4.31-2.54,7.48s.84,5.68,2.54,7.5c1.69,1.82,3.86,2.73,6.5,2.73Z" style="fill: #fff; stroke-width: 0px;"/>
</svg>