<svg id="_0368_construction_worker" xmlns="http://www.w3.org/2000/svg" viewBox="0 0 500 500" data-imageid="construction-worker-65" imageName="Construction Worker" class="illustrations_image" style="width: 166px;"><defs><style>.cls-1_construction-worker-65{fill:#fff;}.cls-2_construction-worker-65{fill:#f4a28c;}.cls-3_construction-worker-65{opacity:.46;}.cls-3_construction-worker-65,.cls-4_construction-worker-65,.cls-5_construction-worker-65,.cls-6_construction-worker-65,.cls-7_construction-worker-65,.cls-8_construction-worker-65{fill:none;}.cls-9_construction-worker-65{fill:#a5a5a5;}.cls-10_construction-worker-65{fill:#ce8172;}.cls-11_construction-worker-65{fill:#e6e6e6;}.cls-4_construction-worker-65{opacity:.03;}.cls-5_construction-worker-65{opacity:.08;}.cls-6_construction-worker-65{opacity:.31;}.cls-7_construction-worker-65{opacity:.2;}.cls-8_construction-worker-65{opacity:.3;}.cls-12_construction-worker-65{fill:#24285b;}.cls-13_construction-worker-65{fill:#000001;}.cls-14_construction-worker-65{fill:#ffd200;}.cls-15_construction-worker-65{fill:#68e1fd;}</style></defs><g id="bg_construction-worker-65"><g class="cls-8_construction-worker-65"><path class="cls-11_construction-worker-65" d="m159.61,75.3c-63.92,15.8-114.44,65.68-129.25,129.84-11.02,47.74-1.35,96.97,72.8,114.87,160.33,38.7,333.49,25.94,354.24-51.47,20.75-77.41-18.41-194.46-110.08-202.68-52.2-4.68-129.9-4.84-187.7,9.44Z"/></g><g class="cls-4_construction-worker-65"><ellipse class="cls-13_construction-worker-65" cx="262.11" cy="438.48" rx="215.46" ry="20.69"/></g><rect class="cls-11_construction-worker-65" x="433.94" y="328.57" width="7.63" height="104.41" transform="translate(119.16 -104.11) rotate(15.67)"/><path class="cls-9_construction-worker-65" d="m459.15,335.42c-.57,0-1.14-.08-1.72-.24l-12.32-3.46c-3.37-.95-5.35-4.47-4.4-7.84l2.49-8.86c.95-3.38,4.46-5.35,7.84-4.4l12.32,3.46c1.63.46,2.99,1.53,3.83,3.01.83,1.48,1.04,3.2.58,4.83l-2.49,8.86c-.79,2.8-3.34,4.64-6.12,4.64Zm-.65-4.05c1.28.36,2.6-.39,2.96-1.66l2.49-8.86c.17-.62.1-1.27-.22-1.82-.31-.56-.83-.96-1.44-1.13l-12.32-3.46c-1.27-.36-2.6.39-2.96,1.66l-2.49,8.86c-.36,1.27.39,2.6,1.66,2.96l12.32,3.46Z"/><path class="cls-9_construction-worker-65" d="m441.48,436.98l6.14-21.87-36.57-10.26-6.41,22.86c-.88,3.13-.92,6.3-.25,9.27h37.1Z"/><path class="cls-11_construction-worker-65" d="m442.32,247.13c0-6.04-4.9-10.94-10.94-10.94-.6,0-1.18.06-1.76.15-2.49-4.62-7.37-7.76-12.98-7.76-.18,0-.36.02-.54.03.34-1.36.54-2.78.54-4.24,0-9.66-7.83-17.5-17.5-17.5s-17.5,7.83-17.5,17.5c0,1.47.2,2.88.54,4.24-.18,0-.36-.03-.54-.03-8.14,0-14.74,6.6-14.74,14.74s6.6,14.74,14.74,14.74h51.16v-.1c5.36-.7,9.51-5.28,9.51-10.83Z"/><path class="cls-11_construction-worker-65" d="m321.89,81.09c0-6.04-4.9-10.94-10.94-10.94-.6,0-1.18.06-1.76.15-2.49-4.62-7.37-7.76-12.98-7.76-.18,0-.36.02-.54.03.34-1.36.54-2.78.54-4.24,0-9.66-7.83-17.5-17.5-17.5s-17.5,7.83-17.5,17.5c0,1.47.2,2.88.54,4.24-.18,0-.36-.03-.54-.03-8.14,0-14.74,6.6-14.74,14.74s6.6,14.74,14.74,14.74h51.16v-.1c5.36-.7,9.51-5.28,9.51-10.83Z"/><path class="cls-11_construction-worker-65" d="m22.43,189.1c0-5.93,4.81-10.74,10.74-10.74.59,0,1.16.06,1.72.15,2.44-4.54,7.24-7.62,12.75-7.62.18,0,.35.02.53.03-.33-1.34-.53-2.73-.53-4.17,0-9.49,7.69-17.18,17.18-17.18s17.18,7.69,17.18,17.18c0,1.44-.2,2.83-.53,4.17.18,0,.35-.03.53-.03,7.99,0,14.48,6.48,14.48,14.48s-6.48,14.48-14.48,14.48H31.77s0-.1,0-.1c-5.27-.68-9.35-5.18-9.35-10.64Z"/><path class="cls-11_construction-worker-65" d="m274.79,430.04s5.76-8.28-2.83-10.56c-8.59-2.28,2.07-13.44-5.92-14.9-7.99-1.47-6.66,10.34-6.66,10.34,0,0-5.52-4.76-9.33-.76-3.81,4,1.52,8.38,1.52,8.38,0,0-7.69,2.66-2.89,7.51h26.12Z"/><path class="cls-9_construction-worker-65" d="m263.24,431.14s3.66-6.25,9.05-5.48c5.39.77,4.81,5.48,4.81,5.48h-13.86Z"/></g><g id="mtc_construction-worker-65"><rect class="cls-15_construction-worker-65 targetColor" x="295.88" y="314.74" width="12.86" height="122.26" style="fill: rgb(104, 225, 253);"/><rect class="cls-15_construction-worker-65 targetColor" x="365.37" y="314.74" width="12.86" height="122.26" style="fill: rgb(104, 225, 253);"/><g class="cls-5_construction-worker-65"><rect class="cls-13_construction-worker-65" x="295.88" y="314.74" width="12.86" height="122.26"/></g><g class="cls-5_construction-worker-65"><rect class="cls-13_construction-worker-65" x="365.37" y="314.74" width="12.86" height="122.26"/></g><rect class="cls-15_construction-worker-65 targetColor" x="280.66" y="329.92" width="112.85" height="39.81" style="fill: rgb(104, 225, 253);"/><polygon class="cls-12_construction-worker-65" points="286.38 329.92 299.87 369.72 318.52 369.72 303.19 329.92 286.38 329.92"/><polygon class="cls-12_construction-worker-65" points="320.92 329.92 334.4 369.72 353.06 369.72 337.73 329.92 320.92 329.92"/><polygon class="cls-12_construction-worker-65" points="355.35 329.92 368.84 369.72 387.49 369.72 372.16 329.92 355.35 329.92"/><rect class="cls-15_construction-worker-65 targetColor" x="280.66" y="384.8" width="112.85" height="18.66" style="fill: rgb(104, 225, 253);"/><g class="cls-5_construction-worker-65"><polygon class="cls-13_construction-worker-65" points="363.15 329.92 393.5 359.2 393.5 345.26 363.15 329.92"/></g></g><g id="person_construction-worker-65"><path class="cls-2_construction-worker-65" d="m240.03,284.59s-14.24,7.21-8.8,15.54c5.45,8.33,17.29-7.77,17.29-7.77l-8.5-7.77Z"/><path class="cls-15_construction-worker-65 targetColor" d="m207.49,141.94c-1.69-6.33,4.1-12.12,10.43-10.4,16.64,4.51,45.03,16.27,67.3,46.32,2.97,4.01,5.79,7.92,8.45,11.71,18.36,26.11,12.58,62.09-12.97,81.21l-30.67,22.95-12.13-11.09,24.6-23.52c13.31-12.72,13.26-33.99-.1-46.65l-48.3-45.76-6.6-24.76Z" style="fill: rgb(104, 225, 253);"/><g class="cls-3_construction-worker-65"><path class="cls-1_construction-worker-65" d="m207.49,141.94c-1.69-6.33,4.1-12.12,10.43-10.4,16.64,4.51,45.03,16.27,67.3,46.32,2.97,4.01,5.79,7.92,8.45,11.71,18.36,26.11,12.58,62.09-12.97,81.21l-30.67,22.95-12.13-11.09,24.6-23.52c13.31-12.72,13.26-33.99-.1-46.65l-48.3-45.76-6.6-24.76Z"/></g><path class="cls-2_construction-worker-65" d="m179.08,100.43s4.41,8.53,5.35,15.03c.38,2.64-1.48,5.12-4.12,5.46-3.28.42-7.84.05-10.76-4.24l-5.85-6.66s-3.52-4.3,0-9.97c3.52-5.66,12.95-4.95,15.37.38Z"/><polygon class="cls-2_construction-worker-65" points="166.64 107.54 165.25 138.98 182.63 138.51 176.66 115.82 166.64 107.54"/><path class="cls-2_construction-worker-65" d="m172.77,111.92s-1.47-3.39-3.93-2.07c-2.46,1.32-.36,6.23,3.32,5.26l.61-3.19Z"/><path class="cls-2_construction-worker-65" d="m181.58,105.95l3.88,2.4c.96.59.98,1.98.03,2.6l-3.13,2.04-.78-7.04Z"/><g class="cls-6_construction-worker-65"><path class="cls-10_construction-worker-65" d="m178.07,121.02s-3.26-.29-5.96-2.69c0,0,.9,5.69,7.82,10.62l-1.86-7.93Z"/></g><path class="cls-12_construction-worker-65" d="m165.89,116.01l-6.75-11.45s-6.22-1.87-3.51-6.84c2.71-4.96,6.75-2.72,8.29-9.15,1.55-6.43,8.08-5.84,10.35-2.5s10.37-.26,10.21,5.65c-.16,5.9-7.7,8.33-9.84,9-9.4,2.95,2.33,13.23-8.75,15.28Z"/><path class="cls-15_construction-worker-65 targetColor" d="m217.06,417.74s2.55,7.09,8.96,7.64c6.41.54,8.09,6.81,2.32,8.44-5.76,1.63-20.63-5.78-20.63-5.78l.42-9.25,8.93-1.05Z" style="fill: rgb(104, 225, 253);"/><path class="cls-15_construction-worker-65 targetColor" d="m130.28,417.74s-2.55,7.09-8.96,7.64c-6.41.54-8.09,6.81-2.32,8.44,5.76,1.63,20.63-5.78,20.63-5.78l-.42-9.25-8.93-1.05Z" style="fill: rgb(104, 225, 253);"/><path class="cls-15_construction-worker-65 targetColor" d="m206.58,129.78c-21.79.37-51.19,4.2-82.96,17.74-16.99,7.24-24.43,27.26-16.15,43.77l45.14,90.04,83.69-4.95s15.23-50.6,12.18-107.85c-1.18-22.07-19.8-39.12-41.89-38.74Z" style="fill: rgb(104, 225, 253);"/><path class="cls-12_construction-worker-65" d="m152.61,281.32l-25.01,137.7h12.51s31.35-74.76,31.35-74.76c11.1-26.47,30.67-48.52,55.65-62.68l9.2-5.21-83.69,4.95Z"/><path class="cls-12_construction-worker-65" d="m236.3,276.37l-12.92,142.65h-16.62s3.88-107.34-26.1-130.19l55.64-12.46Z"/><g class="cls-5_construction-worker-65"><path class="cls-13_construction-worker-65" d="m147.06,154.14s21.38,13.74,14.65,55.99,20.24,69.46,20.24,69.46l-29.34,1.74s-18.8-39.22-23.83-47.54c-5.04-8.32,18.29-79.65,18.29-79.65Z"/></g><path class="cls-15_construction-worker-65 targetColor" d="m151.4,166.93c.09-19.14-23.83-27.98-36.64-13.75-9.08,10.09-18.05,24.57-20.37,43.74-5.1,42.04.51,133.8.51,133.8h15.22s10.28-91.72,32.71-133.8c6.25-11.73,8.53-21.71,8.57-29.99Z" style="fill: rgb(104, 225, 253);"/><g class="cls-3_construction-worker-65"><path class="cls-1_construction-worker-65" d="m151.4,166.93c.09-19.14-23.83-27.98-36.64-13.75-9.08,10.09-18.05,24.57-20.37,43.74-5.1,42.04.51,133.8.51,133.8h15.22s10.28-91.72,32.71-133.8c6.25-11.73,8.53-21.71,8.57-29.99Z"/></g><path class="cls-12_construction-worker-65" d="m116.8,357.7h-2.41v-6.97c0-4.24-3.45-7.69-7.69-7.69h-8.33c-4.24,0-7.69,3.45-7.69,7.69v6.49h-2.41v-6.49c0-5.57,4.53-10.1,10.1-10.1h8.33c5.57,0,10.1,4.53,10.1,10.1v6.97Z"/><rect class="cls-14_construction-worker-65" x="52.2" y="373.6" width="102.7" height="22.39"/><g class="cls-5_construction-worker-65"><rect class="cls-13_construction-worker-65" x="52.2" y="373.6" width="102.7" height="22.39"/></g><polygon class="cls-14_construction-worker-65" points="142.35 354.66 154.91 373.6 52.2 373.6 64.76 354.66 142.35 354.66"/><path class="cls-2_construction-worker-65" d="m97.55,330.72s-4.57,15.14,1.44,15.14,13.22,2.88,8.65-15.14h-10.09Z"/><path class="cls-14_construction-worker-65" d="m153.75,97.6l32.55-4.4c1.16-.16,1.52-1.66.55-2.32l-1.4-.95c-1.59-1.08-2.7-2.71-3.14-4.58-1.21-5.07-4.85-15.26-14.59-15.68-12.47-.54-24.76,8.8-17.3,26.04.57,1.31,1.93,2.09,3.34,1.9Z"/><g class="cls-6_construction-worker-65"><path class="cls-1_construction-worker-65" d="m151.02,86.22c.06-3.06.92-8.14,5.49-11.48.84-.61,1.95.3,1.5,1.24-1.15,2.42-2.48,6.12-2.56,10.35-.02,1.07-.83,1.96-1.88,2.12h0c-1.36.2-2.58-.86-2.55-2.23Z"/></g><path class="cls-12_construction-worker-65" d="m152.01,284.59s10.12-53.73,10.12-83.43c0-43.87-15.89-62.6-15.89-62.6l6.57-2.11s13.78,22.47,36.44,17.69c21.07-4.44,15.73-24.9,15.64-25.19h6.1s19.66,16.06,24.28,41.95c7.82,43.86,1.03,105.47,1.03,105.47l-84.28,8.22Z"/><rect class="cls-9_construction-worker-65" x="145.49" y="276.37" width="89.78" height="11.37"/><rect class="cls-14_construction-worker-65" x="141.73" y="270.46" width="18.2" height="26.66" rx="2.54" ry="2.54"/><g class="cls-3_construction-worker-65"><rect class="cls-1_construction-worker-65" x="141.73" y="270.46" width="18.2" height="12.83" rx="2.54" ry="2.54"/></g><circle class="cls-12_construction-worker-65" cx="150.83" cy="276.78" r="2.54"/><rect class="cls-14_construction-worker-65" x="163.2" y="270.46" width="18.2" height="26.66" rx="2.54" ry="2.54"/><g class="cls-3_construction-worker-65"><rect class="cls-1_construction-worker-65" x="163.2" y="270.46" width="18.2" height="12.83" rx="2.54" ry="2.54"/></g><circle class="cls-12_construction-worker-65" cx="172.3" cy="276.78" r="2.54"/><rect class="cls-14_construction-worker-65" x="220.48" y="270.46" width="18.2" height="26.66" rx="2.54" ry="2.54"/><g class="cls-3_construction-worker-65"><rect class="cls-1_construction-worker-65" x="220.48" y="270.46" width="18.2" height="12.83" rx="2.54" ry="2.54"/></g><circle class="cls-12_construction-worker-65" cx="229.58" cy="276.78" r="2.54"/><g class="cls-7_construction-worker-65"><path class="cls-1_construction-worker-65" d="m228.75,205.55s-40.14,2.59-52.27,0l-1.64,32.9s40.39,5.59,52.2,1.35l1.71-34.25Z"/></g></g></svg>